<?xml version="1.0" standalone="no"?>
<!DOCTYPE svg PUBLIC "-//W3C//DTD SVG 20010904//EN"
 "http://www.w3.org/TR/2001/REC-SVG-20010904/DTD/svg10.dtd">
<svg version="1.0" xmlns="http://www.w3.org/2000/svg"
 width="260.000000pt" height="260.000000pt" viewBox="0 0 260.000000 260.000000"
 preserveAspectRatio="xMidYMid meet">
<metadata>
Created by potrace 1.11, written by Peter Selinger 2001-2013
</metadata>
<g transform="translate(0.000000,260.000000) scale(0.100000,-0.100000)"
fill="#000000" stroke="none">
<path d="M520 2491 c0 -5 -15 -11 -32 -14 -18 -3 -46 -11 -63 -18 -16 -7 -32
-13 -35 -13 -17 -4 -121 -90 -153 -127 -53 -62 -57 -67 -57 -79 0 -5 -4 -10
-10 -10 -5 0 -10 -7 -10 -15 0 -8 -5 -15 -12 -15 -6 0 -9 -3 -5 -6 3 -3 -2
-25 -12 -47 -10 -23 -16 -48 -14 -54 3 -7 1 -13 -4 -13 -7 0 -10 -256 -3 -270
2 -3 4 -9 5 -15 1 -5 8 -23 15 -40 7 -16 14 -35 16 -42 8 -42 111 -162 186
-218 22 -17 73 -49 78 -50 3 -1 32 -10 65 -20 44 -14 92 -19 183 -20 67 -1
122 2 122 6 0 3 17 9 38 13 87 13 235 121 288 209 16 27 35 55 42 62 6 8 12
18 12 24 0 5 5 22 12 38 6 15 10 36 9 46 -1 9 2 17 6 17 11 0 11 255 0 266 -4
4 -7 13 -7 20 0 7 -5 25 -12 41 -6 15 -12 33 -13 39 -10 46 -119 174 -188 220
-23 16 -45 33 -49 39 -4 5 -8 6 -8 1 0 -5 -6 -4 -12 1 -12 9 -64 29 -108 41
-31 8 -270 11 -270 3z"/>
<path d="M1857 2493 c-3 -2 -20 -7 -39 -10 -18 -2 -52 -13 -75 -23 -24 -11
-43 -16 -43 -13 0 4 -11 -4 -25 -17 -14 -13 -25 -20 -25 -17 0 16 -120 -98
-154 -147 -28 -38 -81 -163 -77 -180 1 -4 -2 -13 -7 -20 -8 -11 -8 -200 1
-246 3 -14 11 -38 18 -55 7 -16 13 -33 13 -36 7 -46 126 -193 191 -235 38 -24
88 -48 98 -46 4 1 7 -2 7 -7 0 -5 17 -12 38 -16 20 -5 44 -10 52 -13 27 -7
225 -8 235 -1 6 4 12 7 15 7 35 -1 128 39 195 85 52 36 139 131 150 166 3 12
11 21 17 21 6 0 9 3 6 6 -4 3 3 26 14 51 11 25 22 57 25 72 9 48 9 232 1 237
-5 3 -6 9 -3 14 10 16 -43 143 -84 200 -35 49 -119 129 -155 147 -17 9 -33 19
-36 23 -3 3 -41 18 -85 32 -62 20 -101 26 -172 26 -50 0 -94 -2 -96 -5z"/>
<path d="M520 1183 c-25 -6 -46 -12 -47 -13 -2 -2 -7 -3 -11 -4 -21 -3 -112
-50 -112 -58 0 -4 -6 -8 -13 -8 -18 0 -109 -91 -146 -146 -35 -53 -73 -148
-73 -181 0 -13 -4 -23 -8 -23 -3 0 -5 -46 -4 -102 3 -102 7 -139 19 -158 3 -5
8 -20 10 -32 6 -31 38 -98 48 -98 4 0 7 -5 7 -10 0 -9 10 -22 67 -85 53 -60
146 -114 246 -145 63 -19 203 -22 270 -6 139 33 263 120 340 239 18 27 32 52
32 56 1 3 6 15 12 26 6 11 11 22 11 25 1 3 3 12 5 20 19 64 23 96 22 175 -1
50 -10 119 -19 154 -19 69 -85 181 -139 234 -33 34 -167 122 -167 111 0 -4 -6
-2 -12 4 -7 5 -29 13 -48 18 -19 4 -42 9 -50 12 -36 9 -199 6 -240 -5z"/>
<path d="M1856 1192 c-2 -1 -14 -5 -26 -7 -112 -22 -228 -93 -310 -192 -17
-20 -65 -95 -65 -103 -1 -3 -6 -14 -12 -26 -7 -11 -14 -32 -17 -45 -3 -13 -8
-35 -11 -49 -16 -58 -12 -195 7 -264 20 -72 53 -146 72 -158 6 -5 7 -8 1 -8
-7 0 -6 -3 0 -8 6 -4 23 -22 38 -41 57 -68 172 -145 252 -166 17 -5 37 -10 45
-13 28 -8 225 -10 235 -2 6 4 26 11 45 15 43 9 123 49 170 84 92 69 153 155
195 276 19 54 29 265 13 265 -5 0 -7 4 -4 8 6 9 -15 87 -27 98 -4 4 -7 16 -7
26 0 10 -4 18 -10 18 -5 0 -10 5 -10 12 0 17 -49 86 -91 127 -51 50 -79 72
-79 63 0 -4 -4 -2 -8 4 -12 18 -103 60 -162 75 -47 11 -225 20 -234 11z"/>
</g>
</svg>
